<svg width="115" height="53" viewBox="0 0 115 53" fill="none" xmlns="http://www.w3.org/2000/svg">
<path d="M77.1516 34.7529C78.6838 34.7529 80.0139 35.0826 81.1418 35.7422C82.2698 36.4019 83.1109 37.2322 83.6643 38.2324V35.04H86.6008V52.5352H83.6643V49.2783C83.0897 50.2999 82.2277 51.1519 81.0784 51.833C79.9504 52.4927 78.6304 52.8223 77.1194 52.8223C75.5658 52.8222 74.1612 52.439 72.9055 51.6729C71.6498 50.9067 70.6604 49.8316 69.9368 48.4482C69.2132 47.0649 68.8508 45.4901 68.8508 43.7236C68.8508 41.936 69.2132 40.372 69.9368 39.0312C70.6604 37.6691 71.6498 36.615 72.9055 35.8701C74.1825 35.1252 75.598 34.7529 77.1516 34.7529ZM59.0618 9.38574C59.6577 8.34293 60.5307 7.49178 61.6799 6.83203C62.8292 6.17235 64.1383 5.8418 65.6067 5.8418C67.1814 5.84187 68.5963 6.21518 69.8518 6.95996C71.1075 7.70487 72.0979 8.758 72.8215 10.1201C73.5451 11.4609 73.9065 13.0258 73.9065 14.8135C73.9064 16.5798 73.5451 18.1548 72.8215 19.5381C72.0979 20.9215 71.0975 21.9965 69.8206 22.7627C68.565 23.5288 67.1602 23.9111 65.6067 23.9111C64.0956 23.9111 62.7648 23.5817 61.6155 22.9219C60.4875 22.2621 59.6364 21.421 59.0618 20.3994V50.1729H66.8508V52.5352H56.1565V0H59.0618V9.38574ZM96.427 49.7256L100.769 35.04H103.738L107.984 49.7578L111.943 35.04H114.816L109.357 52.5352H106.356L102.142 38.6475L97.927 52.5352H94.927L89.4358 35.04H92.4045L96.427 49.7256ZM77.7258 37.2754C76.6405 37.2754 75.6509 37.5303 74.7571 38.041C73.8633 38.5517 73.1505 39.2966 72.6184 40.2754C72.0863 41.2544 71.8206 42.4041 71.8206 43.7236C71.8206 45.0645 72.0863 46.235 72.6184 47.2354C73.1505 48.2143 73.8632 48.9699 74.7571 49.502C75.6509 50.0127 76.6405 50.2685 77.7258 50.2686C78.8113 50.2686 79.8017 50.0127 80.6956 49.502C81.6106 48.9699 82.3344 48.2142 82.8665 47.2354C83.3984 46.2352 83.6643 45.0752 83.6643 43.7559C83.6643 42.4363 83.3985 41.2866 82.8665 40.3076C82.3345 39.3287 81.6105 38.584 80.6956 38.0732C79.8017 37.5412 78.8113 37.2754 77.7258 37.2754ZM85.2971 5.8418C86.9571 5.84185 88.4255 6.20416 89.7024 6.92773C90.9794 7.65136 91.9588 8.65174 92.6399 9.92871C93.3421 11.1842 93.6926 12.6101 93.6926 14.2061C93.6926 14.7593 93.6608 15.3448 93.5969 15.9619H79.6145C79.7209 17.6858 80.3062 19.0376 81.3704 20.0166C82.4558 20.9743 83.7648 21.4531 85.2971 21.4531C86.5525 21.4531 87.5952 21.1662 88.425 20.5918C89.2764 19.9959 89.8726 19.2075 90.2131 18.2285H93.342C92.8738 19.9099 91.9372 21.2835 90.5325 22.3477C89.1279 23.3904 87.3826 23.9111 85.2971 23.9111C83.637 23.9111 82.1469 23.5389 80.8274 22.7939C79.5292 22.0491 78.5078 20.9958 77.7629 19.6338C77.018 18.2504 76.6448 16.6538 76.6448 14.8447C76.6448 13.0358 77.0071 11.45 77.7307 10.0879C78.4543 8.72589 79.4657 7.68354 80.7639 6.95996C82.0834 6.21511 83.5945 5.8418 85.2971 5.8418ZM19.759 23.624H16.6946L14.9065 18.6758H5.20142L3.41333 23.624H0.348877L8.3938 1.5H11.7463L19.759 23.624ZM44.304 5.81055C45.666 5.81058 46.8795 6.09726 47.9436 6.67188C49.0077 7.22523 49.8479 8.06641 50.4651 9.19434C51.0823 10.3223 51.3909 11.695 51.3909 13.3125V23.624H48.5178V13.7275C48.5178 11.9826 48.0816 10.6525 47.2092 9.7373C46.3579 8.80085 45.1973 8.33203 43.7288 8.33203C42.2178 8.33211 41.0152 8.82183 40.1213 9.80078C39.2275 10.7585 38.7805 12.1531 38.7805 13.9834V23.624H35.9075V13.7275C35.9075 11.9825 35.4713 10.6525 34.5989 9.7373C33.7476 8.80085 32.5869 8.33203 31.1184 8.33203C29.6075 8.33213 28.4048 8.82185 27.511 9.80078C26.6172 10.7585 26.1702 12.1531 26.1702 13.9834V23.624H23.2659V6.12988H26.1702V8.65137C26.7448 7.73627 27.5114 7.03443 28.469 6.54492C29.448 6.05541 30.523 5.81055 31.6936 5.81055C33.162 5.81056 34.4602 6.14012 35.5881 6.7998C36.7161 7.45958 37.5572 8.42809 38.1106 9.70508C38.6001 8.4708 39.4085 7.51307 40.5364 6.83203C41.6644 6.15097 42.9206 5.81055 44.304 5.81055ZM106.083 8.81152H105.318C102.061 8.81152 100.433 10.5776 100.433 14.1104V23.624H97.5276V6.12988H100.433V8.9707C100.944 7.97048 101.667 7.19396 102.604 6.64062C103.561 6.08729 104.721 5.81058 106.083 5.81055V8.81152ZM64.9993 8.36426C63.9353 8.36432 62.9456 8.6301 62.0305 9.16211C61.1367 9.67287 60.413 10.4285 59.8596 11.4287C59.3276 12.4077 59.0618 13.5466 59.0618 14.8447C59.0618 16.1643 59.3275 17.3249 59.8596 18.3252C60.413 19.3041 61.1367 20.0598 62.0305 20.5918C62.9456 21.1025 63.9353 21.3574 64.9993 21.3574C66.0847 21.3574 67.0751 21.1026 67.969 20.5918C68.8841 20.0598 69.6078 19.3041 70.1399 18.3252C70.6719 17.325 70.9377 16.1541 70.9377 14.8135C70.9377 13.494 70.6719 12.3442 70.1399 11.3652C69.6079 10.3864 68.884 9.64165 67.969 9.13086C67.0751 8.62006 66.0847 8.36426 64.9993 8.36426ZM6.03149 16.3135H14.0764L10.054 5.07617L6.03149 16.3135ZM85.1692 8.30078C83.7007 8.30078 82.4445 8.76862 81.4016 9.70508C80.3802 10.6415 79.7948 11.9397 79.6458 13.5996H90.6917C90.6916 12.4932 90.4476 11.5461 89.9583 10.7588C89.4687 9.95003 88.7979 9.34286 87.9465 8.93848C87.1166 8.51288 86.1907 8.3008 85.1692 8.30078Z" fill="white"/>
<rect y="28.5645" width="51.5065" height="24.2581" rx="12.129" fill="#F0963C"/>
</svg>
