<svg width="363" height="167" viewBox="0 0 363 167" fill="none" xmlns="http://www.w3.org/2000/svg">
<path d="M243.469 109.671C248.305 109.671 252.502 110.712 256.062 112.794C259.622 114.876 262.275 117.495 264.021 120.651V110.577H273.29V165.786H264.021V155.51C262.208 158.734 259.488 161.42 255.861 163.569C252.301 165.651 248.137 166.692 243.369 166.692C238.466 166.692 234.032 165.483 230.07 163.065C226.107 160.648 222.984 157.256 220.701 152.891C218.417 148.525 217.275 143.555 217.275 137.98C217.275 132.339 218.417 127.402 220.701 123.171C222.984 118.872 226.107 115.547 230.07 113.196C234.1 110.846 238.566 109.671 243.469 109.671ZM186.382 29.6191C188.263 26.3281 191.017 23.6416 194.644 21.5596C198.271 19.4776 202.401 18.4365 207.036 18.4365C212.006 18.4366 216.472 19.6123 220.434 21.9629C224.397 24.3136 227.521 27.638 229.804 31.9365C232.088 36.1678 233.229 41.1045 233.229 46.7461C233.229 52.3205 232.088 57.2907 229.804 61.6562C227.521 66.0219 224.363 69.4141 220.333 71.832C216.371 74.2497 211.938 75.458 207.036 75.458C202.267 75.458 198.069 74.417 194.442 72.335C190.882 70.2529 188.196 67.5997 186.382 64.376V158.331H210.964V165.786H177.214V0H186.382V29.6191ZM304.297 156.92L317.999 110.577H327.368L340.767 157.021L353.259 110.577H362.327L345.099 165.786H335.629L322.331 121.962L309.033 165.786H299.562L282.234 110.577H291.603L304.297 156.92ZM245.283 117.63C241.857 117.63 238.733 118.435 235.913 120.047C233.092 121.659 230.843 124.01 229.164 127.1C227.484 130.189 226.644 133.816 226.644 137.98C226.644 142.212 227.485 145.906 229.164 149.062C230.843 152.152 233.092 154.536 235.913 156.215C238.733 157.827 241.857 158.633 245.283 158.633C248.708 158.633 251.831 157.827 254.652 156.215C257.54 154.536 259.823 152.152 261.502 149.062C263.181 145.906 264.021 142.245 264.021 138.081C264.021 133.917 263.182 130.29 261.502 127.2C259.823 124.111 257.54 121.76 254.652 120.148C251.831 118.469 248.708 117.63 245.283 117.63ZM269.173 18.4365C274.412 18.4365 279.046 19.578 283.076 21.8613C287.105 24.1449 290.196 27.3022 292.345 31.332C294.561 35.2946 295.669 39.7949 295.669 44.832C295.669 46.5782 295.568 48.4254 295.367 50.373H251.241C251.577 55.8131 253.424 60.0775 256.782 63.167C260.207 66.1894 264.338 67.7012 269.173 67.7012C273.136 67.7012 276.427 66.7939 279.046 64.9805C281.733 63.0999 283.613 60.6148 284.688 57.5254H294.561C293.083 62.8312 290.128 67.1633 285.696 70.5215C281.263 73.8125 275.755 75.458 269.173 75.458C263.935 75.458 259.233 74.2833 255.069 71.9326C250.972 69.5819 247.748 66.2565 245.397 61.958C243.046 57.5925 241.872 52.5554 241.872 46.8467C241.872 41.1379 243.013 36.1343 245.296 31.8359C247.58 27.5375 250.771 24.2465 254.868 21.9629C259.032 19.6122 263.8 18.4365 269.173 18.4365ZM62.354 74.5518H52.6831L47.0415 58.9365H16.4146L10.7729 74.5518H1.10107L26.4888 4.73535H37.0669L62.354 74.5518ZM139.81 18.3359C144.108 18.3359 147.937 19.2423 151.295 21.0557C154.654 22.8019 157.307 25.455 159.254 29.0146C161.202 32.5743 162.176 36.9063 162.176 42.0107V74.5518H153.109V43.3203C153.109 37.813 151.732 33.6155 148.978 30.7275C146.292 27.7725 142.632 26.295 137.998 26.2949C133.229 26.2949 129.434 27.8392 126.613 30.9287C123.792 33.9511 122.381 38.3509 122.381 44.127V74.5518H113.314V43.3203C113.314 37.8131 111.938 33.6155 109.184 30.7275C106.498 27.7724 102.837 26.2949 98.2026 26.2949C93.434 26.2949 89.6387 27.8392 86.8179 30.9287C83.9971 33.9511 82.5874 38.351 82.5874 44.127V74.5518H73.4194V19.3428H82.5874V27.3018C84.4008 24.4139 86.8181 22.197 89.8403 20.6523C92.9299 19.1076 96.3221 18.3359 100.016 18.3359C104.65 18.336 108.747 19.3769 112.307 21.459C115.867 23.5411 118.52 26.5972 120.266 30.627C121.811 26.7315 124.363 23.7088 127.922 21.5596C131.482 19.4104 135.445 18.336 139.81 18.3359ZM334.77 27.8057H332.352C322.076 27.8058 316.938 33.3804 316.938 44.5293V74.5518H307.771V19.3428H316.938V28.3096C318.55 25.1529 320.834 22.7013 323.79 20.9551C326.812 19.209 330.472 18.336 334.77 18.3359V27.8057ZM205.122 26.3955C201.763 26.3955 198.64 27.235 195.751 28.9141C192.931 30.526 190.647 32.9108 188.901 36.0674C187.222 39.1568 186.382 42.7499 186.382 46.8467C186.382 51.0108 187.222 54.6714 188.901 57.8281C190.647 60.9175 192.931 63.3014 195.751 64.9805C198.64 66.5924 201.763 67.3984 205.122 67.3984C208.547 67.3984 211.67 66.5923 214.491 64.9805C217.379 63.3014 219.662 60.9175 221.341 57.8281C223.02 54.6715 223.86 50.9773 223.86 46.7461C223.86 42.5819 223.02 38.9548 221.341 35.8652C219.662 32.7758 217.379 30.4254 214.491 28.8135C211.67 27.2016 208.547 26.3956 205.122 26.3955ZM19.0337 51.4805H44.4214L31.728 16.0186L19.0337 51.4805ZM268.77 26.1934C264.136 26.1934 260.173 27.6718 256.882 30.627C253.659 33.5821 251.811 37.6793 251.341 42.918H286.2C286.2 39.4255 285.427 36.4362 283.882 33.9512C282.338 31.399 280.221 29.4851 277.535 28.209C274.915 26.8658 271.994 26.1934 268.77 26.1934Z" fill="#2B2B2B"/>
<rect y="90.1416" width="162.541" height="76.5518" rx="38.2759" fill="#F0963C"/>
</svg>
